<svg width="340.000000pt" height="338.000000pt" viewBox="0 0 340.000000 338.000000" xmlns="http://www.w3.org/2000/svg">
  <g transform="translate(0.000000,338.000000) scale(0.100000,-0.100000)" fill="#ffffff" stroke="none">
    <path d="M0 1690 l0 -1690 1700 0 1700 0 0 1690 0 1690 -1700 0 -1700 0 0
-1690z m2177 1389 c196 -115 390 -176 662 -204 75 -8 153 -15 174 -15 l38 0 6
-17 c10 -25 -16 -342 -38 -473 -61 -352 -153 -570 -343 -815 -69 -88 -233
-238 -355 -326 -83 -59 -201 -124 -290 -159 l-54 -21 -51 17 c-82 26 -233 111
-336 187 -93 70 -256 225 -299 286 l-22 31 83 0 84 0 49 -51 c143 -147 407
-319 489 -319 38 0 210 92 306 164 104 78 311 289 369 377 53 80 133 243 161
327 50 153 91 372 105 569 l7 91 -59 7 c-108 11 -327 58 -431 91 -123 40 -242
94 -356 163 -46 28 -93 51 -105 51 -11 0 -49 -18 -83 -41 -92 -60 -269 -143
-378 -178 -119 -38 -246 -66 -374 -82 l-99 -12 7 -123 8 -124 -65 0 -65 0 -5
23 c-9 39 -29 326 -24 341 l5 14 89 6 c233 18 425 58 588 122 115 46 244 119
330 188 l69 55 59 -50 c33 -27 98 -72 144 -100z m-116 -448 l39 -39 0 -42 c0
-23 -7 -54 -16 -70 -21 -35 -64 -60 -104 -60 -37 0 -65 13 -101 46 l-25 24
-245 -2 -244 -3 -60 -96 -59 -96 -280 -6 -279 -7 -21 -19 c-12 -11 -38 -27
-59 -36 l-39 -16 -32 11 c-18 6 -45 23 -60 39 l-27 28 -5 35 -6 35 17 37 c20
41 70 76 109 76 33 0 74 -20 100 -49 l19 -21 252 0 252 0 62 100 62 100 274 0
274 0 14 20 c20 29 67 50 111 50 l38 0 39 -39z m-528 -422 c12 -6 34 -22 48
-36 l26 -24 364 3 365 3 39 33 40 32 37 0 37 0 42 -22 41 -21 14 -33 c18 -43
18 -58 -2 -99 l-16 -34 -38 -20 c-66 -34 -95 -32 -154 14 l-46 35 -364 0 -363
0 -19 -21 c-28 -31 -68 -49 -108 -49 l-35 0 -35 31 -36 31 -9 35 -10 36 13 31
c7 18 28 44 45 59 l33 27 34 0 c20 0 45 -5 57 -11z m-1120 -183 c18 -7 43 -25
56 -40 l24 -26 277 0 277 0 59 -97 60 -98 244 -3 244 -2 25 24 c37 34 65 46
105 46 l34 0 33 -27 c17 -15 38 -41 45 -59 l13 -31 -10 -36 c-13 -46 -36 -73
-79 -91 l-35 -14 -39 13 c-21 7 -50 25 -65 39 l-27 26 -271 0 -271 0 -62 100
-61 100 -250 0 -251 0 -30 -30 c-34 -35 -65 -45 -111 -36 l-33 6 -35 36 -34
35 0 43 0 43 28 36 28 37 32 9 c44 13 44 13 80 -3z m1337 -1506 l0 -140 13 0
c8 0 42 29 76 65 l63 65 45 0 45 0 -61 -66 c-34 -37 -61 -75 -61 -86 0 -10 32
-66 70 -123 l70 -105 -47 0 -48 0 -49 75 -48 75 -16 0 c-8 0 -24 -7 -34 -17
l-18 -16 0 -59 0 -58 -40 0 -40 0 0 265 0 265 40 0 40 0 0 -140z m-317 109
c41 -21 77 -63 88 -101 l10 -38 -20 -45 -20 -45 -75 -79 c-42 -44 -76 -87 -76
-95 l0 -16 100 0 100 0 0 -40 0 -40 -170 0 -170 0 0 31 0 31 102 107 c56 58
110 120 120 136 10 17 18 45 18 63 l0 32 -20 20 -20 20 -35 0 -34 0 -35 -30
-34 -31 -30 18 -30 18 22 27 c11 14 37 35 56 47 l35 21 48 0 c27 0 58 -5 70
-11z m-451 -56 l3 -58 48 -3 47 -3 0 -30 0 -29 -50 0 -50 0 0 -103 0 -103 16
-23 17 -23 39 5 38 5 10 -18 c6 -10 10 -21 10 -24 0 -13 -62 -36 -95 -36 l-35
0 -38 34 -37 34 -3 126 -4 126 -29 0 -29 0 0 30 0 30 30 0 30 0 0 60 0 60 40
0 39 0 3 -57z m1236 -113 l32 -50 18 0 18 0 29 50 30 50 43 0 c23 0 42 -3 42
-6 0 -3 -25 -41 -55 -84 -30 -43 -55 -86 -55 -95 0 -9 27 -54 60 -101 33 -46
60 -86 60 -89 0 -3 -20 -5 -44 -5 l-44 0 -37 55 -38 55 -16 0 c-9 -1 -33 -25
-54 -55 l-38 -55 -39 0 c-22 0 -40 3 -40 6 0 3 27 46 61 95 l61 89 -6 15 c-3
8 -28 48 -56 90 -27 41 -50 77 -50 80 0 3 19 5 43 5 l42 0 33 -50z" />
    <path d="M1926 2594 l-16 -15 0 -33 0 -33 18 -16 c23 -21 76 -22 96 -1 l16 15
0 33 0 33 -18 16 c-23 21 -76 22 -96 1z" />
    <path d="M517 2392 c-10 -10 -17 -31 -17 -46 l0 -27 25 -24 c28 -29 51 -31 83
-9 l22 15 0 38 0 38 -18 16 c-10 10 -32 17 -49 17 l-30 0 -16 -18z" />
    <path d="M1450 2157 c-13 -7 -29 -25 -35 -40 l-9 -28 15 -27 15 -27 38 -3 38
-3 19 17 19 17 0 31 c0 37 -7 49 -37 65 -27 14 -32 14 -63 -2z" />
    <path d="M2404 2135 l-16 -25 7 -27 c10 -41 24 -53 61 -53 l34 0 20 20 c24 24
26 57 4 88 l-15 22 -39 0 -40 0 -16 -25z" />
    <path d="M316 1948 c-22 -31 -20 -64 4 -88 l20 -20 30 0 30 0 20 20 c24 24 26
57 4 88 l-15 22 -39 0 -39 0 -15 -22z" />
    <path d="M1727 1752 c-21 -23 -22 -76 -1 -96 l15 -16 38 0 39 0 13 16 c7 9 13
31 13 49 0 18 -6 40 -13 49 l-13 16 -38 0 -37 0 -16 -18z" />
  </g>
  <g transform="translate(0.000000,338.000000) scale(0.100000,-0.100000)" fill="#7cc5f0" stroke="none">
    <path d="M2020 3190 c0 -5 7 -10 16 -10 l15 0 -6 10 c-3 6 -10 10 -16 10 -5 0
-9 -4 -9 -10z" />
    <path d="M1875 3170 l-6 -10 15 0 c9 0 16 5 16 10 0 6 -4 10 -9 10 -6 0 -13
-4 -16 -10z" />
    <path d="M2110 3120 c0 -5 7 -10 16 -10 l15 0 -6 10 c-3 6 -10 10 -16 10 -5 0
-9 -4 -9 -10z" />
    <path d="M1775 3100 l-6 -10 15 0 c9 0 16 5 16 10 0 6 -4 10 -9 10 -6 0 -13
-4 -16 -10z" />
    <path d="M2160 3090 c0 -5 7 -10 16 -10 l15 0 -6 10 c-3 6 -10 10 -16 10 -5 0
-9 -4 -9 -10z" />
    <path d="M1714 3065 c-10 -8 -14 -15 -7 -15 19 0 43 11 43 21 0 13 -14 11 -36
-6z" />
    <path d="M2210 3061 c0 -10 24 -21 43 -21 7 0 3 7 -7 15 -22 17 -36 19 -36 6z" />
    <path d="M1960 3042 c0 -4 15 -14 33 -22 17 -7 35 -15 40 -18 4 -2 7 1 7 7 0
6 -5 11 -11 11 -6 0 -17 7 -25 15 -16 16 -44 20 -44 7z" />
    <path d="M1920 3020 c0 -5 -7 -10 -15 -10 -8 0 -15 -4 -15 -10 0 -15 12 -12
40 10 l25 20 -17 0 c-10 0 -18 -4 -18 -10z" />
    <path d="M2290 3021 c0 -11 59 -36 66 -28 3 3 -8 13 -25 21 -35 18 -41 19 -41
7z" />
    <path d="M2380 2980 c0 -5 7 -10 16 -10 l15 0 -6 10 c-3 6 -10 10 -16 10 -5 0
-9 -4 -9 -10z" />
    <path d="M2115 2950 c3 -5 10 -10 16 -10 5 0 9 5 9 10 0 6 -7 10 -16 10 l-15
0 6 -10z" />
    <path d="M2438 2949 l-18 -10 0 -39 0 -39 16 -15 c18 -19 24 -19 61 -5 32 12
43 26 43 57 0 12 5 22 12 22 l12 0 -9 8 c-9 7 -85 33 -96 32 -2 0 -12 -5 -21
-11z" />
    <path d="M1405 2940 l-6 -10 15 0 c9 0 16 5 16 10 0 6 -4 10 -9 10 -6 0 -13
-4 -16 -10z" />
    <path d="M1325 2920 l-6 -10 15 0 c9 0 16 5 16 10 0 6 -4 10 -9 10 -6 0 -13
-4 -16 -10z" />
    <path d="M2590 2920 c0 -5 7 -10 16 -10 l15 0 -6 10 c-3 6 -10 10 -16 10 -5 0
-9 -4 -9 -10z" />
    <path d="M2670 2900 c0 -5 7 -10 16 -10 l15 0 -6 10 c-3 6 -10 10 -16 10 -5 0
-9 -4 -9 -10z" />
    <path d="M1175 2890 l-6 -10 15 0 c9 0 16 5 16 10 0 6 -4 10 -9 10 -6 0 -13
-4 -16 -10z" />
    <path d="M2730 2890 c0 -5 7 -10 16 -10 l15 0 -6 10 c-3 6 -10 10 -16 10 -5 0
-9 -4 -9 -10z" />
    <path d="M1095 2880 l-6 -10 15 0 c9 0 16 5 16 10 0 6 -4 10 -9 10 -6 0 -13
-4 -16 -10z" />
    <path d="M1663 2883 c-14 -5 -18 -23 -5 -23 5 0 17 7 28 15 l19 14 -15 0 c-8
0 -21 -3 -27 -6z" />
    <path d="M2255 2880 c3 -5 10 -10 16 -10 5 0 9 5 9 10 0 6 -7 10 -16 10 l-15
0 6 -10z" />
    <path d="M2820 2880 c0 -5 7 -10 16 -10 l15 0 -6 10 c-3 6 -10 10 -16 10 -5 0
-9 -4 -9 -10z" />
    <path d="M975 2870 l-6 -10 15 0 c9 0 16 5 16 10 0 6 -4 10 -9 10 -6 0 -13 -4
-16 -10z" />
    <path d="M2920 2870 c0 -5 9 -10 21 -10 l20 0 -6 10 c-3 6 -13 10 -21 10 -8 0
-14 -4 -14 -10z" />
    <path d="M1600 2850 c0 -5 4 -10 9 -10 6 0 13 5 16 10 l6 10 -15 0 c-9 0 -16
-4 -16 -10z" />
    <path d="M2356 2841 c5 -5 19 -12 32 -16 l22 -6 0 9 c0 9 -32 22 -54 22 l-10
0 10 -9z" />
    <path d="M2486 2801 c5 -5 19 -12 32 -16 l22 -6 0 9 c0 9 -32 22 -54 22 l-10
0 10 -9z" />
    <path d="M1420 2790 c0 -5 4 -10 9 -10 6 0 13 5 16 10 l6 10 -15 0 c-9 0 -16
-4 -16 -10z" />
    <path d="M1380 2780 c0 -5 4 -10 9 -10 6 0 13 5 16 10 l6 10 -15 0 c-9 0 -16
-4 -16 -10z" />
    <path d="M2565 2780 c3 -5 10 -10 16 -10 5 0 9 5 9 10 0 6 -7 10 -16 10 l-15
0 6 -10z" />
    <path d="M2655 2760 c3 -5 10 -10 16 -10 5 0 9 5 9 10 0 6 -7 10 -16 10 l-15
0 6 -10z" />
    <path d="M880 2746 c0 -8 5 -18 10 -21 l10 -6 0 20 c0 12 -4 21 -10 21 -5 0
-10 -6 -10 -14z" />
    <path d="M1240 2750 c0 -5 4 -10 9 -10 6 0 13 5 16 10 l6 10 -15 0 c-9 0 -16
-4 -16 -10z" />
    <path d="M2705 2750 c3 -5 10 -10 16 -10 5 0 9 5 9 10 0 6 -7 10 -16 10 l-15
0 6 -10z" />
    <path d="M2765 2740 c3 -5 10 -10 16 -10 5 0 9 5 9 10 0 6 -7 10 -16 10 l-15
0 6 -10z" />
    <path d="M1090 2730 c0 -5 4 -10 9 -10 6 0 13 5 16 10 l6 10 -15 0 c-9 0 -16
-4 -16 -10z" />
    <path d="M2855 2730 c3 -5 10 -10 16 -10 5 0 9 5 9 10 0 6 -7 10 -16 10 l-15
0 6 -10z" />
    <path d="M3050 2704 l0 -25 10 6 c6 3 10 15 10 26 0 10 -4 19 -10 19 -5 0 -10
-12 -10 -26z" />
    <path d="M1030 2705 c0 -8 5 -15 10 -15 6 0 10 7 10 15 0 8 -4 15 -10 15 -5 0
-10 -7 -10 -15z" />
    <path d="M2905 2647 c-4 -10 -5 -21 -1 -24 10 -10 18 4 13 24 l-4 18 -8 -18z" />
    <path d="M890 2616 c0 -8 5 -18 10 -21 l10 -6 0 20 c0 12 -4 21 -10 21 -5 0
-10 -6 -10 -14z" />
    <path d="M1040 2596 c0 -9 5 -16 10 -16 6 0 10 4 10 9 0 6 -4 13 -10 16 l-10
6 0 -15z" />
    <path d="M3040 2574 l0 -15 10 6 c6 3 10 10 10 16 0 5 -4 9 -10 9 -5 0 -10 -7
-10 -16z" />
    <path d="M900 2511 c0 -6 5 -13 10 -16 l10 -6 0 15 c0 9 -4 16 -10 16 -5 0
-10 -4 -10 -9z" />
    <path d="M1050 2486 c0 -9 5 -16 10 -16 6 0 10 4 10 9 0 6 -4 13 -10 16 l-10
6 0 -15z" />
    <path d="M3030 2464 l0 -15 10 6 c6 3 10 10 10 16 0 5 -4 9 -10 9 -5 0 -10 -7
-10 -16z" />
    <path d="M2886 2451 c-4 -7 -5 -15 -2 -18 9 -9 19 4 14 18 l-4 13 -8 -13z" />
    <path d="M2876 2391 c-4 -7 -5 -15 -2 -18 9 -9 19 4 14 18 l-4 13 -8 -13z" />
    <path d="M2856 2281 c-4 -7 -5 -15 -2 -18 9 -9 19 4 14 18 l-4 13 -8 -13z" />
    <path d="M2846 2241 c-4 -7 -5 -15 -2 -18 9 -9 19 4 14 18 l-4 13 -8 -13z" />
    <path d="M2960 2114 l0 -15 10 6 c6 3 10 10 10 16 0 5 -4 9 -10 9 -5 0 -10 -7
-10 -16z" />
    <path d="M2800 2086 c-12 -33 -12 -36 -1 -36 10 0 25 50 17 58 -3 2 -10 -7
-16 -22z" />
    <path d="M2946 2064 c-9 -36 1 -43 14 -10 12 33 12 36 1 36 -5 0 -12 -12 -15
-26z" />
    <path d="M2920 1984 l0 -15 10 6 c6 3 10 10 10 16 0 5 -4 9 -10 9 -5 0 -10 -7
-10 -16z" />
    <path d="M2686 1831 c-4 -7 -5 -15 -2 -18 9 -9 19 4 14 18 l-4 13 -8 -13z" />
    <path d="M2656 1781 c-4 -7 -5 -15 -2 -18 9 -9 19 4 14 18 l-4 13 -8 -13z" />
    <path d="M2616 1721 c-4 -7 -5 -15 -2 -18 9 -9 19 4 14 18 l-4 13 -8 -13z" />
    <path d="M2586 1681 c-4 -7 -5 -15 -2 -18 9 -9 19 4 14 18 l-4 13 -8 -13z" />
    <path d="M2546 1641 c-4 -7 -5 -15 -2 -18 9 -9 19 4 14 18 l-4 13 -8 -13z" />
    <path d="M2730 1624 l0 -15 10 6 c6 3 10 10 10 16 0 5 -4 9 -10 9 -5 0 -10 -7
-10 -16z" />
    <path d="M1255 1570 c3 -5 8 -10 11 -10 2 0 4 5 4 10 0 6 -5 10 -11 10 -5 0
-7 -4 -4 -10z" />
    <path d="M2425 1510 l-49 -50 14 0 c20 1 93 75 89 89 l-4 12 -50 -51z" />
    <path d="M1280 1531 c0 -6 5 -13 10 -16 l10 -6 0 15 c0 9 -4 16 -10 16 -5 0
-10 -4 -10 -9z" />
    <path d="M2630 1494 l0 -15 10 6 c6 3 10 10 10 16 0 5 -4 9 -10 9 -5 0 -10 -7
-10 -16z" />
    <path d="M1350 1451 c0 -6 5 -13 10 -16 l10 -6 0 15 c0 9 -4 16 -10 16 -5 0
-10 -4 -10 -9z" />
    <path d="M1580 1430 c0 -5 7 -10 16 -10 l15 0 -6 10 c-3 6 -10 10 -16 10 -5 0
-9 -4 -9 -10z" />
    <path d="M2315 1410 l-6 -10 15 0 c9 0 16 5 16 10 0 6 -4 10 -9 10 -6 0 -13
-4 -16 -10z" />
    <path d="M1630 1390 c0 -5 7 -10 16 -10 l15 0 -6 10 c-3 6 -10 10 -16 10 -5 0
-9 -4 -9 -10z" />
    <path d="M2250 1360 l-25 -20 18 0 c9 0 17 5 17 10 0 6 7 10 15 10 8 0 15 5
15 10 0 15 -12 12 -40 -10z" />
    <path d="M1443 1353 c9 -9 19 -14 23 -11 10 10 -6 28 -24 28 l-16 0 17 -17z" />
    <path d="M1760 1300 c0 -5 7 -10 16 -10 l15 0 -6 10 c-3 6 -10 10 -16 10 -5 0
-9 -4 -9 -10z" />
    <path d="M2075 1250 l-6 -10 15 0 c9 0 16 5 16 10 0 6 -4 10 -9 10 -6 0 -13
-4 -16 -10z" />
    <path d="M1595 1230 c3 -5 10 -10 16 -10 5 0 9 5 9 10 0 6 -7 10 -16 10 l-15
0 6 -10z" />
    <path d="M1890 1230 c0 -5 7 -10 16 -10 l15 0 -6 10 c-3 6 -10 10 -16 10 -5 0
-9 -4 -9 -10z" />
    <path d="M1985 1210 l-6 -10 15 0 c9 0 16 5 16 10 0 6 -4 10 -9 10 -6 0 -13
-4 -16 -10z" />
    <path d="M1665 1180 c3 -5 10 -10 16 -10 5 0 9 5 9 10 0 6 -7 10 -16 10 l-15
0 6 -10z" />
    <path d="M2060 1080 c0 -5 4 -10 9 -10 6 0 13 5 16 10 l6 10 -15 0 c-9 0 -16
-4 -16 -10z" />
    <path d="M1998 1063 c-10 -2 -18 -9 -18 -14 l0 -10 23 6 c12 4 26 11 32 16 l9
9 -14 -1 c-8 -1 -23 -3 -32 -6z" />
    <path d="M1660 395 l0 -275 50 0 50 0 0 58 0 59 18 16 c10 10 21 17 24 17 3 0
27 -34 54 -75 l49 -75 63 0 63 0 -7 13 c-4 6 -38 58 -76 114 -37 56 -68 107
-68 112 0 5 32 43 71 85 l71 76 -65 0 -65 0 -66 -67 -66 -68 0 143 0 142 -50
0 -50 0 0 -275z" />
    <path d="M1269 627 c-20 -12 -49 -36 -63 -53 l-26 -32 42 -25 43 -25 37 34 38
34 25 0 c31 0 65 -33 65 -62 0 -36 -29 -75 -138 -189 l-102 -107 0 -41 0 -41
180 0 180 0 0 50 0 49 -102 3 -103 3 78 82 78 83 20 46 21 45 -7 40 c-8 45
-43 93 -86 114 l-28 15 -58 0 -58 0 -36 -23z" />
    <path d="M890 580 l0 -60 -30 0 -30 0 0 -40 0 -40 29 0 29 0 4 -126 3 -126 37
-34 38 -34 47 0 48 0 32 20 33 20 -17 35 -17 36 -15 -7 c-9 -4 -26 -9 -37 -11
l-22 -5 -16 23 -16 23 0 93 0 93 50 0 50 0 0 39 0 40 -47 3 -48 3 -3 58 -3 57
-49 0 -50 0 0 -60z" />
    <path d="M2131 428 c34 -51 62 -97 62 -103 0 -5 -30 -54 -67 -108 l-67 -97 60
0 60 0 38 55 c21 30 41 54 44 55 3 0 23 -25 44 -55 l37 -55 65 0 65 0 -38 52
c-21 29 -53 74 -71 99 -18 26 -33 50 -33 54 0 3 30 49 66 101 l65 94 -63 0
-63 0 -30 -50 c-16 -28 -33 -50 -37 -50 -4 0 -23 22 -40 50 l-33 50 -63 0 -63
0 62 -92z" />
  </g>
  <g transform="translate(0.000000,338.000000) scale(0.100000,-0.100000)" fill="#c4232a" stroke="none">
    <path d="M1933 2676 c-18 -6 -49 -25 -68 -43 l-34 -32 28 -30 c31 -33 61 -41
61 -17 0 22 29 46 54 46 28 0 56 -29 56 -58 0 -28 -26 -52 -56 -52 -13 0 -24
-5 -24 -11 0 -6 8 -24 17 -40 l17 -29 19 0 c29 0 72 29 91 62 l18 29 0 46 0
46 -19 25 c-43 57 -102 79 -160 58z" />
    <path d="M611 2424 l-13 -36 11 -11 c6 -6 11 -24 11 -39 l0 -28 -20 -12 -20
-13 0 -43 0 -42 37 15 c21 9 47 25 59 35 l20 20 90 0 c49 0 94 4 100 8 11 7
44 96 44 119 l0 13 -118 0 -119 0 -23 25 c-13 14 -29 25 -35 25 -6 0 -17 -16
-24 -36z" />
    <path d="M2325 2169 c-11 -4 -77 -8 -147 -8 l-128 -1 0 -27 c0 -16 -3 -45 -6
-65 l-6 -37 151 -3 152 -3 5 20 c3 12 4 46 2 76 l-3 56 -20 -8z" />
    <path d="M597 1933 c3 -21 10 -46 15 -55 l9 -18 -16 0 c-8 0 -15 -4 -15 -10
l0 -10 185 0 c102 0 185 3 185 8 0 4 -12 33 -27 64 l-28 58 -157 0 -157 0 6
-37z" />
    <path d="M1859 1723 c-13 -16 -29 -37 -34 -48 -6 -10 -24 -22 -40 -25 -37 -8
-95 -38 -95 -49 0 -8 32 -23 77 -36 l22 -6 45 20 45 19 14 29 c30 60 32 123 3
123 -7 0 -23 -12 -37 -27z" />
    <path d="M1070 1695 c0 -3 7 -17 16 -30 l16 -25 24 0 c13 0 24 4 24 8 0 10
-56 52 -70 52 -5 0 -10 -2 -10 -5z" />
  </g>
  <g transform="translate(0.000000,338.000000) scale(0.100000,-0.100000)" fill="#ac232e" stroke="none">
    <path d="M493 2459 c-17 -11 -39 -36 -48 -56 l-17 -36 5 -46 5 -45 35 -33 35
-32 37 -7 c20 -3 38 -5 40 -3 2 2 5 22 6 43 l4 39 -24 2 c-27 2 -61 38 -61 65
0 37 61 65 87 39 l11 -11 13 36 c7 20 18 36 24 36 5 1 -1 7 -15 15 -14 8 -43
14 -65 14 l-40 1 -32 -21z" />
    <path d="M2429 2233 c-14 -2 -40 -16 -57 -31 l-31 -27 -3 -79 -3 -80 43 -30
43 -31 37 1 c20 1 56 11 79 23 l41 22 16 34 c20 41 20 75 2 119 l-14 33 -38
20 c-46 23 -79 31 -115 26z m77 -108 l17 -26 -11 -24 -11 -24 -26 -7 c-34 -9
-53 1 -65 32 l-11 27 16 23 15 24 30 0 30 0 16 -25z" />
    <path d="M323 2039 l-32 -9 -28 -37 -28 -36 0 -54 0 -53 37 -36 36 -37 50 -5
51 -4 34 21 c19 12 38 28 41 36 l5 15 48 0 c26 0 58 3 71 7 l24 6 -7 21 c-4
11 -10 37 -13 56 l-7 35 -50 3 -50 3 -30 29 c-31 30 -75 51 -103 49 -9 0 -31
-5 -49 -10z m93 -104 l17 -26 -11 -24 c-21 -45 -92 -42 -107 5 l-7 21 16 24
16 25 30 0 30 0 16 -25z" />
  </g>
  <g transform="translate(0.000000,338.000000) scale(0.100000,-0.100000)" fill="#01a8e7" stroke="none">
    <path d="M1641 3028 c-87 -39 -213 -83 -283 -98 -32 -7 -58 -17 -58 -22 0 -4
7 -8 15 -8 l15 0 0 -63 c0 -35 3 -66 6 -69 9 -9 200 45 285 81 l76 32 7 85 c4
48 6 87 4 89 -2 1 -32 -11 -67 -27z" />
    <path d="M2980 2300 c-8 -5 -24 -16 -35 -25 -11 -9 -40 -29 -64 -44 l-44 -29
-24 -82 c-28 -99 -104 -263 -167 -359 l-46 -71 15 0 c8 0 15 7 15 15 0 8 5 15
10 15 6 0 10 6 10 14 0 15 49 36 86 36 13 0 26 5 30 11 l7 11 37 -5 38 -5 37
80 c39 86 84 224 116 353 10 44 19 83 19 88 0 10 -22 9 -40 -3z" />
  </g>
  <g transform="translate(0.000000,338.000000) scale(0.100000,-0.100000)" fill="#d34a2b" stroke="none">
    <path d="M1276 2569 c-15 -22 -25 -43 -22 -46 3 -3 47 5 98 18 l93 24 72 -10
c39 -5 75 -13 79 -17 4 -5 15 -8 23 -8 9 0 33 -11 53 -25 l37 -25 70 0 c39 0
71 4 71 8 0 10 -70 77 -90 86 -8 4 -26 13 -40 21 l-25 15 -196 0 -196 0 -27
-41z" />
    <path d="M1930 2420 c0 -5 7 -10 15 -10 8 0 15 5 15 10 0 6 -7 10 -15 10 -8 0
-15 -4 -15 -10z" />
    <path d="M960 2400 c0 -5 9 -10 20 -10 23 0 26 -17 6 -45 -7 -11 -16 -30 -20
-42 l-7 -23 58 0 58 0 13 33 c7 17 18 40 23 49 5 10 9 25 9 33 l0 15 -80 0
-80 0 0 -10z" />
    <path d="M1876 2113 c-4 -27 -9 -56 -12 -65 l-5 -18 54 0 54 0 7 46 c3 26 6
55 6 65 l0 19 -49 0 -49 0 -6 -47z" />
    <path d="M980 1964 c0 -3 13 -31 29 -63 25 -51 42 -74 92 -128 25 -26 84 -68
125 -87 21 -10 48 -24 59 -30 l20 -10 148 -4 149 -4 11 11 c6 6 19 11 28 11
27 0 79 33 79 51 0 38 70 65 98 37 l12 -12 0 27 0 27 28 0 27 1 -28 24 -28 25
-50 0 -50 0 -5 -13 c-2 -7 -30 -26 -62 -42 -31 -15 -66 -33 -77 -38 -11 -6
-57 -13 -103 -15 l-83 -5 -22 11 c-39 18 -101 32 -151 35 l-50 2 -60 98 -59
97 -39 0 c-21 0 -38 -3 -38 -6z" />
  </g>
  <g transform="translate(0.000000,338.000000) scale(0.100000,-0.100000)" fill="#0088c1" stroke="none">
    <path d="M942 2873 l-53 -4 -6 -15 c-5 -14 13 -290 24 -351 l5 -33 77 0 77 0
-11 121 c-6 66 -9 122 -6 125 2 2 13 4 23 4 l18 0 0 58 c0 31 -3 67 -6 80 l-6
22 -42 -2 c-22 -1 -65 -3 -94 -5z" />
    <path d="M2481 1502 l-65 -3 -10 -13 c-21 -25 -141 -121 -193 -155 -29 -18
-53 -36 -53 -41 0 -7 71 -18 171 -26 l57 -4 41 34 c86 72 203 181 212 197 l9
17 -53 -1 c-28 -1 -81 -3 -116 -5z" />
    <path d="M2113 1273 c-18 -7 -16 -23 2 -23 8 0 15 7 15 15 0 8 -1 15 -2 14 -2
0 -9 -3 -15 -6z" />
  </g>
  <g transform="translate(0.000000,338.000000) scale(0.100000,-0.100000)" fill="#cf362b" stroke="none">
    <path d="M1993 2673 c4 -3 10 -3 14 0 3 4 0 7 -7 7 -7 0 -10 -3 -7 -7z" />
    <path d="M1880 2650 l-15 -10 12 0 c6 0 15 5 18 10 8 12 4 12 -15 0z" />
    <path d="M2070 2635 c40 -48 43 -51 32 -30 -6 11 -21 29 -34 40 l-23 20 25
-30z" />
    <path d="M1854 2618 l-7 -11 11 7 c7 4 12 9 12 12 0 8 -9 4 -16 -8z" />
    <path d="M1700 2590 c19 -10 42 -22 50 -26 8 -4 47 -38 86 -76 62 -58 85 -74
97 -66 1 1 12 -4 25 -11 12 -6 27 -9 33 -6 l10 7 -21 34 c-12 19 -18 34 -14
34 3 0 -6 10 -21 22 l-27 21 6 36 5 36 -11 -20 c-6 -11 -12 -22 -14 -24 -2 -2
-17 10 -33 28 l-29 31 -89 0 -88 -1 35 -19z" />
    <path d="M2100 2570 c0 -7 3 -10 7 -7 3 4 3 10 0 14 -4 3 -7 0 -7 -7z" />
    <path d="M2021 2513 l-11 -28 15 19 c8 11 15 23 15 28 0 15 -7 8 -19 -19z" />
    <path d="M2100 2520 c0 -7 3 -10 7 -7 3 4 3 10 0 14 -4 3 -7 0 -7 -7z" />
    <path d="M2077 2465 c-15 -19 -22 -32 -14 -29 11 4 53 64 45 64 -2 0 -15 -16
-31 -35z" />
    <path d="M645 2450 c3 -5 8 -10 11 -10 3 0 2 5 -1 10 -3 6 -8 10 -11 10 -3 0
-2 -4 1 -10z" />
    <path d="M2013 2413 c4 -3 10 -3 14 0 3 4 0 7 -7 7 -7 0 -10 -3 -7 -7z" />
    <path d="M818 2403 c56 -2 102 -5 102 -7 0 -2 -7 -23 -15 -46 -8 -23 -15 -49
-15 -56 l0 -14 40 0 39 0 27 56 c14 30 23 58 19 62 -4 4 -73 7 -153 8 l-147 1
103 -4z" />
    <path d="M1966 2114 c-3 -26 -6 -55 -6 -65 l0 -19 44 0 44 0 6 31 c3 17 6 47
6 65 l0 34 -44 0 -43 0 -7 -46z" />
    <path d="M900 1957 c0 -6 11 -33 25 -59 l25 -47 -117 -4 -118 -3 132 -2 132
-2 61 -100 c34 -55 67 -100 73 -100 l12 0 -10 8 c-5 4 -17 16 -25 27 l-15 19
36 -27 37 -28 113 3 114 3 -30 8 c-149 41 -264 133 -327 259 l-29 58 -44 0
-45 0 0 -13z" />
    <path d="M688 1843 c7 -3 16 -2 19 1 4 3 -2 6 -13 5 l-19 -1 13 -5z" />
    <path d="M1821 1789 l-20 -22 15 -14 c14 -14 18 -34 14 -62 l-2 -15 18 15 c10
7 28 24 41 37 l23 23 -10 19 c-9 17 -40 40 -54 40 -3 0 -14 -10 -25 -21z" />
    <path d="M1674 1685 c-10 -8 -28 -15 -39 -15 -12 0 -25 -4 -30 -9 -6 -5 -26
-11 -45 -14 l-35 -4 61 -1 61 -2 22 -24 22 -24 47 26 46 26 -27 9 c-14 4 -29
17 -32 28 -8 23 -24 24 -51 4z" />
    <path d="M1800 1650 l-15 -10 12 0 c6 0 15 5 18 10 8 12 4 12 -15 0z" />
    <path d="M1885 1629 c-4 -6 -5 -12 -2 -15 2 -3 7 2 10 11 7 17 1 20 -8 4z" />
  </g>
  <g transform="translate(0.000000,338.000000) scale(0.100000,-0.100000)" fill="#0099d6" stroke="none">
    <path d="M1336 2923 c-4 -5 -17 -9 -29 -10 -12 0 -75 -9 -140 -19 l-117 -18
12 -7 13 -8 0 -70 0 -70 45 5 c25 3 83 12 130 20 47 8 87 14 90 14 4 0 8 170
4 170 0 0 -4 -3 -8 -7z" />
    <path d="M1040 2620 c0 -7 3 -10 7 -7 3 4 3 10 0 14 -4 3 -7 0 -7 -7z" />
    <path d="M2825 1810 c-3 -5 -19 -10 -35 -10 -16 0 -32 -4 -35 -10 -3 -5 -16
-10 -29 -10 -37 0 -86 -21 -86 -36 0 -8 -4 -14 -10 -14 -5 0 -10 -4 -10 -10 0
-8 -67 -83 -177 -198 -18 -19 -33 -35 -33 -36 0 -1 39 2 87 5 48 4 92 5 98 3
6 -3 23 0 38 5 l26 10 54 73 c71 95 137 204 130 212 -4 3 -1 6 6 6 7 0 9 5 6
10 -3 6 -10 10 -15 10 -5 0 -12 -4 -15 -10z" />
    <path d="M2604 1458 l-7 -11 11 7 c7 4 12 9 12 12 0 8 -9 4 -16 -8z" />
  </g>
  <g transform="translate(0.000000,338.000000) scale(0.100000,-0.100000)" fill="#0077ad" stroke="none">
    <path d="M1260 1568 c0 -7 20 -35 44 -62 l43 -50 21 -1 c18 -1 55 -26 105 -70
10 -9 28 -20 40 -25 12 -5 40 -21 62 -35 22 -14 51 -30 65 -36 14 -7 48 -23
75 -36 50 -25 146 -60 240 -89 28 -8 64 -20 82 -25 17 -5 54 -12 82 -16 l50
-6 48 28 c76 44 175 116 168 123 -3 4 -23 7 -43 8 -51 2 -154 14 -173 19 -8 3
-25 -4 -37 -15 -12 -12 -22 -19 -22 -16 0 2 -27 -9 -60 -25 -33 -16 -69 -29
-80 -29 -27 0 -177 80 -268 143 -42 28 -117 91 -168 140 l-92 87 -91 0 -91 0
0 -12z" />
    <path d="M1610 1225 c0 -2 20 -18 45 -35 l45 -31 0 16 c0 8 -7 15 -15 15 -8 0
-15 5 -15 10 0 6 -7 10 -15 10 -8 0 -15 5 -15 10 0 6 -7 10 -15 10 -8 0 -15
-2 -15 -5z" />
  </g>
  <g transform="translate(0.000000,338.000000) scale(0.100000,-0.100000)" fill="#29b3ed" stroke="none">
    <path d="M1922 3204 c-23 -20 -40 -40 -36 -45 3 -5 -4 -37 -15 -72 -25 -78
-35 -127 -26 -127 4 0 35 18 68 40 l60 40 24 -15 c26 -17 43 -13 43 11 0 9 10
38 22 66 l22 50 -50 44 c-27 24 -54 43 -60 44 -6 0 -29 -16 -52 -36z" />
    <path d="M1817 3126 c-60 -42 -64 -46 -44 -46 8 0 22 7 31 15 8 8 19 15 25 15
6 0 11 5 11 10 0 6 7 10 15 10 8 0 15 7 15 15 0 8 -1 15 -2 14 -2 0 -25 -15
-51 -33z" />
    <path d="M1710 3060 c-8 -5 -12 -12 -9 -15 8 -8 39 5 39 16 0 11 -11 11 -30
-1z" />
    <path d="M1633 3023 c4 -3 10 -3 14 0 3 4 0 7 -7 7 -7 0 -10 -3 -7 -7z" />
    <path d="M1513 2973 c4 -3 10 -3 14 0 3 4 0 7 -7 7 -7 0 -10 -3 -7 -7z" />
    <path d="M1791 2951 c-7 -5 -12 -14 -9 -21 l4 -12 24 21 25 20 -15 1 c-8 0
-21 -4 -29 -9z" />
    <path d="M1383 2933 c4 -3 10 -3 14 0 3 4 0 7 -7 7 -7 0 -10 -3 -7 -7z" />
    <path d="M1293 2913 c4 -3 10 -3 14 0 3 4 0 7 -7 7 -7 0 -10 -3 -7 -7z" />
    <path d="M1113 2883 c4 -3 10 -3 14 0 3 4 0 7 -7 7 -7 0 -10 -3 -7 -7z" />
    <path d="M2945 2833 c-4 -21 -11 -51 -17 -68 -11 -33 -49 -357 -43 -364 7 -6
102 95 132 141 15 24 31 45 35 48 4 3 8 66 10 140 l3 135 -57 3 -57 3 -6 -38z" />
    <path d="M1278 2753 c7 -3 16 -2 19 1 4 3 -2 6 -13 5 l-19 -1 13 -5z" />
    <path d="M1233 2743 c4 -3 10 -3 14 0 3 4 0 7 -7 7 -7 0 -10 -3 -7 -7z" />
    <path d="M3030 2500 c0 -11 5 -20 10 -20 6 0 10 9 10 20 0 11 -4 20 -10 20 -5
0 -10 -9 -10 -20z" />
    <path d="M3020 2440 c0 -11 5 -20 10 -20 6 0 10 9 10 20 0 11 -4 20 -10 20 -5
0 -10 -9 -10 -20z" />
    <path d="M3010 2365 c0 -8 5 -15 10 -15 6 0 10 7 10 15 0 8 -4 15 -10 15 -5 0
-10 -7 -10 -15z" />
    <path d="M2866 2338 c-6 -30 -2 -47 9 -36 3 2 8 19 11 36 l7 32 -10 0 c-6 0
-13 -14 -17 -32z" />
    <path d="M2996 2234 c-4 -14 -5 -28 -3 -31 3 -2 8 8 11 23 4 14 5 28 3 31 -3
2 -8 -8 -11 -23z" />
    <path d="M2840 2215 c0 -8 5 -15 10 -15 6 0 10 7 10 15 0 8 -4 15 -10 15 -5 0
-10 -7 -10 -15z" />
    <path d="M2820 2150 c0 -7 3 -10 7 -7 3 4 3 10 0 14 -4 3 -7 0 -7 -7z" />
    <path d="M2760 1980 c0 -7 3 -10 7 -7 3 4 3 10 0 14 -4 3 -7 0 -7 -7z" />
    <path d="M2920 1960 c0 -7 3 -10 7 -7 3 4 3 10 0 14 -4 3 -7 0 -7 -7z" />
    <path d="M2834 1778 l-7 -11 11 7 c7 4 12 9 12 12 0 8 -9 4 -16 -8z" />
    <path d="M2774 1678 l-7 -11 11 7 c12 7 16 16 8 16 -3 0 -8 -5 -12 -12z" />
    <path d="M2489 1573 l-14 -18 18 14 c9 7 17 15 17 17 0 8 -8 3 -21 -13z" />
    <path d="M2704 1578 l-7 -11 11 7 c7 4 12 9 12 12 0 8 -9 4 -16 -8z" />
    <path d="M2669 1533 l-14 -18 18 14 c9 7 17 15 17 17 0 8 -8 3 -21 -13z" />
  </g>
  <g transform="translate(0.000000,338.000000) scale(0.100000,-0.100000)" fill="#d75c2c" stroke="none">
    <path d="M1294 2598 l-7 -11 11 7 c12 7 16 16 8 16 -3 0 -8 -5 -12 -12z" />
    <path d="M1415 2570 c-11 -4 -24 -5 -28 -3 -4 3 -13 0 -20 -5 -7 -5 -25 -12
-42 -15 -16 -3 -39 -9 -50 -13 l-20 -8 14 17 c8 10 12 19 10 22 -3 2 -26 -32
-53 -76 l-48 -79 -57 -1 c-31 -1 -46 -4 -33 -6 12 -2 22 -6 22 -9 0 -2 -4 -12
-9 -22 -5 -9 -16 -33 -25 -52 l-15 -35 47 -3 47 -3 10 16 c6 10 27 39 48 65
l37 48 71 36 71 36 171 0 172 0 -45 30 c-25 16 -53 30 -62 30 -9 0 -19 4 -22
9 -10 15 -162 32 -191 21z" />
    <path d="M1865 2460 c10 -11 20 -20 23 -20 3 0 -3 9 -13 20 -10 11 -20 20 -23
20 -3 0 3 -9 13 -20z" />
    <path d="M1796 2110 c-4 -28 -9 -57 -12 -65 l-6 -15 45 0 c25 0 48 3 50 8 3 4
8 33 12 65 l7 57 -45 0 -44 0 -7 -50z" />
    <path d="M1057 1950 c10 -11 19 -20 21 -20 1 0 -2 9 -8 20 -6 11 -15 20 -20
20 -6 0 -2 -9 7 -20z" />
    <path d="M1090 1901 c0 -6 4 -13 10 -16 l10 -6 -6 15 c-7 18 -14 21 -14 7z" />
    <path d="M1120 1855 c0 -5 10 -21 21 -35 l20 -25 -10 20 c-17 33 -31 51 -31
40z" />
    <path d="M1705 1822 c-16 -11 -36 -26 -44 -35 l-13 -17 -187 0 -186 -1 19 -14
c11 -8 29 -15 41 -15 12 0 26 -5 32 -11 l11 -11 99 4 c54 2 107 9 118 14 11 6
46 24 78 40 31 15 57 32 57 36 0 5 10 13 23 18 l22 9 -20 0 c-11 1 -33 -7 -50
-17z" />
    <path d="M1172 1774 c9 -9 21 -15 27 -13 6 2 -2 10 -17 17 l-27 12 17 -16z" />
    <path d="M1763 1763 c4 -3 10 -3 14 0 3 4 0 7 -7 7 -7 0 -10 -3 -7 -7z" />
    <path d="M1734 1748 l-7 -11 11 7 c12 7 16 16 8 16 -3 0 -8 -5 -12 -12z" />
  </g>
  <g transform="translate(0.000000,338.000000) scale(0.100000,-0.100000)" fill="#006ea2" stroke="none">
    <path d="M1260 1561 c0 -6 9 -15 20 -21 11 -6 19 -14 17 -19 -4 -17 175 -196
258 -257 33 -24 65 -49 72 -54 7 -6 17 -10 23 -10 5 0 10 -4 10 -10 0 -5 7
-10 15 -10 8 0 15 -4 15 -8 0 -12 165 -96 227 -117 l53 -17 37 13 c21 6 69 26
108 43 l70 31 -45 7 c-25 4 -56 10 -70 13 -14 4 -41 10 -61 14 -19 4 -41 11
-47 15 -7 4 -20 9 -29 11 -40 10 -161 55 -208 78 -27 13 -61 29 -75 36 -14 6
-43 22 -65 36 -22 14 -50 30 -62 35 -12 5 -31 17 -42 27 -10 10 -36 29 -56 43
-20 14 -66 49 -101 78 -35 29 -64 48 -64 43z" />
  </g>
  <g transform="translate(0.000000,338.000000) scale(0.100000,-0.100000)" fill="#16afeb" stroke="none">
    <path d="M1910 3191 c0 -6 -11 -16 -25 -21 -14 -5 -25 -14 -25 -20 0 -5 -7
-10 -15 -10 -8 0 -15 -4 -15 -10 0 -5 -7 -10 -15 -10 -8 0 -15 -4 -15 -9 0 -5
-12 -14 -27 -19 -16 -6 -38 -19 -51 -29 l-22 -18 -7 -83 c-3 -45 -3 -82 0 -82
15 0 97 45 97 53 0 4 5 5 10 2 6 -3 10 -2 10 3 0 6 10 12 23 16 l23 5 2 30 c1
17 16 69 33 117 17 47 28 89 25 92 -3 3 -6 0 -6 -7z" />
    <path d="M1620 3020 l-15 -10 12 0 c6 0 15 5 18 10 8 12 4 12 -15 0z" />
    <path d="M1563 2993 c4 -3 10 -3 14 0 3 4 0 7 -7 7 -7 0 -10 -3 -7 -7z" />
    <path d="M1483 2963 c4 -3 10 -3 14 0 3 4 0 7 -7 7 -7 0 -10 -3 -7 -7z" />
    <path d="M1453 2953 c4 -3 10 -3 14 0 3 4 0 7 -7 7 -7 0 -10 -3 -7 -7z" />
    <path d="M1423 2943 c4 -3 10 -3 14 0 3 4 0 7 -7 7 -7 0 -10 -3 -7 -7z" />
    <path d="M1263 2903 c4 -3 10 -3 14 0 3 4 0 7 -7 7 -7 0 -10 -3 -7 -7z" />
    <path d="M1573 2833 c4 -3 10 -3 14 0 3 4 0 7 -7 7 -7 0 -10 -3 -7 -7z" />
    <path d="M1523 2813 c4 -3 10 -3 14 0 3 4 0 7 -7 7 -7 0 -10 -3 -7 -7z" />
    <path d="M1443 2793 c4 -3 10 -3 14 0 3 4 0 7 -7 7 -7 0 -10 -3 -7 -7z" />
    <path d="M1413 2783 c4 -3 10 -3 14 0 3 4 0 7 -7 7 -7 0 -10 -3 -7 -7z" />
    <path d="M1323 2763 c4 -3 10 -3 14 0 3 4 0 7 -7 7 -7 0 -10 -3 -7 -7z" />
    <path d="M3027 2587 c-15 -30 -50 -77 -76 -106 l-49 -53 -11 6 -10 6 0 -17 c0
-23 -8 -87 -11 -90 -3 -4 -4 -9 -15 -63 -10 -51 -10 -49 -18 -72 -4 -10 -9
-25 -12 -34 l-5 -15 10 6 c6 3 10 15 10 26 0 10 4 19 10 19 10 0 76 41 102 64
25 22 55 36 62 29 3 -3 7 5 7 18 1 13 4 35 6 49 2 14 6 41 8 60 3 19 7 53 9
75 7 60 15 145 13 145 -1 0 -15 -24 -30 -53z" />
    <path d="M3000 2260 c0 -7 3 -10 7 -7 3 4 3 10 0 14 -4 3 -7 0 -7 -7z" />
    <path d="M2994 2228 l-7 -11 11 7 c12 7 16 16 8 16 -3 0 -8 -5 -12 -12z" />
    <path d="M2980 2170 c0 -7 3 -10 7 -7 3 4 3 10 0 14 -4 3 -7 0 -7 -7z" />
    <path d="M2810 2110 c0 -7 3 -10 7 -7 3 4 3 10 0 14 -4 3 -7 0 -7 -7z" />
    <path d="M2960 2090 c0 -7 3 -10 7 -7 3 4 3 10 0 14 -4 3 -7 0 -7 -7z" />
    <path d="M2800 2080 c0 -7 3 -10 7 -7 3 4 3 10 0 14 -4 3 -7 0 -7 -7z" />
    <path d="M2950 2060 c0 -7 3 -10 7 -7 3 4 3 10 0 14 -4 3 -7 0 -7 -7z" />
    <path d="M2766 1993 l-7 -18 12 12 c7 7 10 15 7 18 -3 3 -9 -2 -12 -12z" />
    <path d="M2915 1949 c-4 -6 -5 -12 -2 -15 2 -3 7 2 10 11 7 17 1 20 -8 4z" />
    <path d="M2726 1903 l-7 -18 12 12 c7 7 10 15 7 18 -3 3 -9 -2 -12 -12z" />
    <path d="M2875 1859 c-4 -6 -5 -12 -2 -15 2 -3 7 2 10 11 7 17 1 20 -8 4z" />
    <path d="M2674 1808 l-7 -11 11 7 c7 4 12 9 12 12 0 8 -9 4 -16 -8z" />
    <path d="M2804 1728 l-7 -11 11 7 c12 7 16 16 8 16 -3 0 -8 -5 -12 -12z" />
    <path d="M2594 1688 l-7 -11 11 7 c7 4 12 9 12 12 0 8 -9 4 -16 -8z" />
    <path d="M2754 1648 l-7 -11 11 7 c12 7 16 16 8 16 -3 0 -8 -5 -12 -12z" />
    <path d="M2724 1608 l-7 -11 11 7 c7 4 12 9 12 12 0 8 -9 4 -16 -8z" />
  </g>
  <g transform="translate(0.000000,338.000000) scale(0.100000,-0.100000)" fill="#42b9ee" stroke="none">
    <path d="M1985 3230 c3 -5 8 -10 11 -10 3 0 2 5 -1 10 -3 6 -8 10 -11 10 -3 0
-2 -4 1 -10z" />
    <path d="M1919 3203 l-14 -18 18 14 c9 7 17 15 17 17 0 8 -8 3 -21 -13z" />
    <path d="M2053 3173 l19 -21 -13 -24 c-7 -13 -18 -41 -25 -63 l-12 -40 -13 3
-14 2 20 -16 c23 -18 151 -94 158 -94 3 0 9 15 13 33 3 17 15 47 25 66 10 19
16 38 14 42 -3 4 -26 19 -53 34 -26 16 -67 44 -92 63 -25 20 -37 26 -27 15z" />
    <path d="M1874 2978 l-7 -11 11 7 c12 7 16 16 8 16 -3 0 -8 -5 -12 -12z" />
    <path d="M1253 2903 c4 -3 10 -3 14 0 3 4 0 7 -7 7 -7 0 -10 -3 -7 -7z" />
    <path d="M1193 2893 c4 -3 10 -3 14 0 3 4 0 7 -7 7 -7 0 -10 -3 -7 -7z" />
    <path d="M2771 2836 c-7 -31 -17 -58 -22 -61 -5 -4 -9 -12 -9 -20 l0 -13 38
-6 c20 -3 58 -8 85 -11 l47 -6 1 -32 0 -32 15 50 c14 51 34 141 34 156 0 9
-29 14 -121 24 l-56 6 -12 -55z" />
    <path d="M2983 2863 c4 -3 10 -3 14 0 3 4 0 7 -7 7 -7 0 -10 -3 -7 -7z" />
    <path d="M3061 2804 l1 -19 5 13 c3 7 2 16 -1 19 -3 4 -6 -2 -5 -13z" />
    <path d="M1453 2793 c4 -3 10 -3 14 0 3 4 0 7 -7 7 -7 0 -10 -3 -7 -7z" />
    <path d="M1333 2763 c4 -3 10 -3 14 0 3 4 0 7 -7 7 -7 0 -10 -3 -7 -7z" />
    <path d="M1293 2753 c4 -3 10 -3 14 0 3 4 0 7 -7 7 -7 0 -10 -3 -7 -7z" />
    <path d="M1173 2733 c4 -3 10 -3 14 0 3 4 0 7 -7 7 -7 0 -10 -3 -7 -7z" />
    <path d="M1078 2723 c7 -3 16 -2 19 1 4 3 -2 6 -13 5 l-19 -1 13 -5z" />
    <path d="M2901 2604 l1 -19 5 13 c3 7 2 16 -1 19 -3 4 -6 -2 -5 -13z" />
    <path d="M3050 2590 c0 -7 3 -10 7 -7 3 4 3 10 0 14 -4 3 -7 0 -7 -7z" />
    <path d="M2891 2514 l1 -19 5 13 c3 7 2 16 -1 19 -3 4 -6 -2 -5 -13z" />
    <path d="M3040 2480 c0 -7 3 -10 7 -7 3 4 3 10 0 14 -4 3 -7 0 -7 -7z" />
    <path d="M2880 2430 c0 -7 3 -10 7 -7 3 4 3 10 0 14 -4 3 -7 0 -7 -7z" />
    <path d="M3031 2414 l1 -19 5 13 c3 7 2 16 -1 19 -3 4 -6 -2 -5 -13z" />
    <path d="M2870 2370 c0 -7 3 -10 7 -7 3 4 3 10 0 14 -4 3 -7 0 -7 -7z" />
    <path d="M3010 2290 c0 -7 3 -10 7 -7 3 4 3 10 0 14 -4 3 -7 0 -7 -7z" />
    <path d="M2990 2200 c0 -7 3 -10 7 -7 3 4 3 10 0 14 -4 3 -7 0 -7 -7z" />
    <path d="M2830 2190 c0 -7 3 -10 7 -7 3 4 3 10 0 14 -4 3 -7 0 -7 -7z" />
    <path d="M2980 2160 c0 -7 3 -10 7 -7 3 4 3 10 0 14 -4 3 -7 0 -7 -7z" />
    <path d="M2553 1643 c4 -3 10 -3 14 0 3 4 0 7 -7 7 -7 0 -10 -3 -7 -7z" />
    <path d="M2474 1558 l-7 -11 11 7 c7 4 12 9 12 12 0 8 -9 4 -16 -8z" />
  </g>
  <g transform="translate(0.000000,338.000000) scale(0.100000,-0.100000)" fill="#5abded" stroke="none">
    <path d="M1864 3158 l-7 -11 11 7 c7 4 12 9 12 12 0 8 -9 4 -16 -8z" />
    <path d="M2198 3022 c-9 -20 -21 -50 -26 -67 l-10 -30 77 -36 76 -37 6 47 c4
26 11 57 18 69 6 11 11 23 11 26 0 6 -115 66 -127 66 -4 0 -16 -17 -25 -38z" />
    <path d="M2640 2892 c0 -15 -12 -47 -25 -71 -14 -24 -24 -45 -22 -47 4 -4 144
-34 158 -34 5 0 8 3 7 8 -1 4 4 20 10 35 7 16 15 45 18 66 l6 39 -53 7 c-30 4
-64 11 -76 16 l-23 9 0 -28z" />
    <path d="M2808 2883 c7 -3 16 -2 19 1 4 3 -2 6 -13 5 l-19 -1 13 -5z" />
    <path d="M998 2873 c7 -3 16 -2 19 1 4 3 -2 6 -13 5 l-19 -1 13 -5z" />
    <path d="M2878 2873 c12 -2 30 -2 40 0 9 3 -1 5 -23 4 l-40 0 23 -4z" />
    <path d="M3008 2863 c12 -2 30 -2 40 0 9 3 -1 5 -23 4 l-40 0 23 -4z" />
    <path d="M882 2775 l0 -30 5 18 c2 9 2 23 0 30 -3 6 -5 -1 -5 -18z" />
    <path d="M3063 2765 l0 -40 4 23 c2 12 2 30 0 40 -3 9 -5 -1 -4 -23z" />
    <path d="M2873 2723 c4 -3 10 -3 14 0 3 4 0 7 -7 7 -7 0 -10 -3 -7 -7z" />
    <path d="M2910 2700 c0 -7 3 -10 7 -7 3 4 3 10 0 14 -4 3 -7 0 -7 -7z" />
    <path d="M1040 2690 c0 -7 3 -10 7 -7 3 4 3 10 0 14 -4 3 -7 0 -7 -7z" />
    <path d="M891 2634 l1 -19 5 13 c3 7 2 16 -1 19 -3 4 -6 -2 -5 -13z" />
    <path d="M2900 2620 c0 -7 3 -10 7 -7 3 4 3 10 0 14 -4 3 -7 0 -7 -7z" />
    <path d="M1050 2580 c0 -7 3 -10 7 -7 3 4 3 10 0 14 -4 3 -7 0 -7 -7z" />
    <path d="M3030 2400 c0 -7 3 -10 7 -7 3 4 3 10 0 14 -4 3 -7 0 -7 -7z" />
    <path d="M3020 2350 c0 -7 3 -10 7 -7 3 4 3 10 0 14 -4 3 -7 0 -7 -7z" />
    <path d="M2624 1478 l-7 -11 11 7 c12 7 16 16 8 16 -3 0 -8 -5 -12 -12z" />
    <path d="M2369 1453 l-14 -18 18 14 c16 13 21 21 13 21 -2 0 -10 -8 -17 -17z" />
    <path d="M2304 1398 l-7 -11 11 7 c7 4 12 9 12 12 0 8 -9 4 -16 -8z" />
    <path d="M1695 1350 c3 -5 8 -10 11 -10 3 0 2 5 -1 10 -3 6 -8 10 -11 10 -3 0
-2 -4 1 -10z" />
    <path d="M2464 1328 l-7 -11 11 7 c7 4 12 9 12 12 0 8 -9 4 -16 -8z" />
  </g>
  <g transform="translate(0.000000,338.000000) scale(0.100000,-0.100000)" fill="#6dc1ef" stroke="none">
    <path d="M2324 2965 c-7 -19 -14 -52 -14 -73 l0 -38 83 -27 c112 -37 198 -58
208 -51 17 10 49 83 49 112 l0 30 -47 7 c-27 3 -59 9 -73 12 l-25 6 14 -16 13
-17 -6 -24 -6 -24 -30 -10 -30 -11 -15 15 c-8 9 -15 29 -15 45 l0 29 26 12 25
12 -63 23 c-35 12 -67 23 -71 23 -4 0 -15 -16 -23 -35z" />
    <path d="M3033 2863 c4 -3 10 -3 14 0 3 4 0 7 -7 7 -7 0 -10 -3 -7 -7z" />
    <path d="M2673 2753 c4 -3 10 -3 14 0 3 4 0 7 -7 7 -7 0 -10 -3 -7 -7z" />
    <path d="M3060 2730 c0 -7 3 -10 7 -7 3 4 3 10 0 14 -4 3 -7 0 -7 -7z" />
    <path d="M900 2520 c0 -7 3 -10 7 -7 3 4 3 10 0 14 -4 3 -7 0 -7 -7z" />
    <path d="M1360 1436 c0 -2 8 -10 18 -17 l17 -14 -14 18 c-13 16 -21 21 -21 13z" />
    <path d="M1425 1370 c3 -5 8 -10 11 -10 3 0 2 5 -1 10 -3 6 -8 10 -11 10 -3 0
-2 -4 1 -10z" />
    <path d="M2145 1290 l-6 -10 15 6 c18 7 21 14 7 14 -6 0 -13 -4 -16 -10z" />
    <path d="M2404 1278 l-7 -11 11 7 c12 7 16 16 8 16 -3 0 -8 -5 -12 -12z" />
    <path d="M2063 1243 c4 -3 10 -3 14 0 3 4 0 7 -7 7 -7 0 -10 -3 -7 -7z" />
    <path d="M2324 1218 l-7 -11 11 7 c12 7 16 16 8 16 -3 0 -8 -5 -12 -12z" />
    <path d="M1735 1140 c3 -5 8 -10 11 -10 3 0 2 5 -1 10 -3 6 -8 10 -11 10 -3 0
-2 -4 1 -10z" />
    <path d="M2083 1083 c4 -3 10 -3 14 0 3 4 0 7 -7 7 -7 0 -10 -3 -7 -7z" />
    <path d="M1863 1073 c4 -3 10 -3 14 0 3 4 0 7 -7 7 -7 0 -10 -3 -7 -7z" />
  </g>
  <g transform="translate(0.000000,338.000000) scale(0.100000,-0.100000)" fill="#dc7131" stroke="none">
    <path d="M1274 2568 l-7 -11 11 7 c7 4 12 9 12 12 0 8 -9 4 -16 -8z" />
    <path d="M1246 2523 l-7 -18 12 12 c7 7 10 15 7 18 -3 3 -9 -2 -12 -12z" />
    <path d="M1224 2488 l-7 -11 11 7 c12 7 16 16 8 16 -3 0 -8 -5 -12 -12z" />
    <path d="M1448 2483 c18 -2 45 -2 60 0 15 2 0 4 -33 4 -33 0 -45 -2 -27 -4z" />
    <path d="M1303 2450 l-61 -31 -34 -42 c-33 -40 -58 -79 -58 -91 0 -3 24 -6 53
-6 l52 0 62 100 c34 55 58 100 54 100 -4 0 -35 -14 -68 -30z" />
    <path d="M1682 2113 c-6 -27 -14 -56 -17 -65 l-7 -18 65 0 c36 0 68 4 71 9 3
4 8 34 12 65 l7 56 -60 0 -60 0 -11 -47z" />
    <path d="M1085 1910 c3 -5 8 -10 11 -10 3 0 2 5 -1 10 -3 6 -8 10 -11 10 -3 0
-2 -4 1 -10z" />
    <path d="M1115 1860 c3 -5 8 -10 11 -10 3 0 2 5 -1 10 -3 6 -8 10 -11 10 -3 0
-2 -4 1 -10z" />
    <path d="M1743 1833 c4 -3 10 -3 14 0 3 4 0 7 -7 7 -7 0 -10 -3 -7 -7z" />
    <path d="M1803 1833 c4 -3 10 -3 14 0 3 4 0 7 -7 7 -7 0 -10 -3 -7 -7z" />
    <path d="M1669 1793 l-14 -18 18 14 c9 7 17 15 17 17 0 8 -8 3 -21 -13z" />
    <path d="M1278 1763 c45 -2 119 -2 165 0 45 1 8 3 -83 3 -91 0 -128 -2 -82 -3z" />
  </g>
  <g transform="translate(0.000000,338.000000) scale(0.100000,-0.100000)" fill="#e3922f" stroke="none">
    <path d="M1294 2358 l-7 -11 11 7 c12 7 16 16 8 16 -3 0 -8 -5 -12 -12z" />
    <path d="M1270 2320 c-6 -11 -8 -20 -6 -20 3 0 10 9 16 20 6 11 8 20 6 20 -3
0 -10 -9 -16 -20z" />
    <path d="M1574 2166 c8 -32 -5 -64 -39 -98 l-28 -28 -42 0 -43 0 -32 30 c-18
17 -36 30 -42 30 l-9 0 5 -20 c3 -11 8 -29 11 -39 3 -11 22 -34 41 -50 l35
-31 45 0 c49 0 89 16 118 49 l19 21 29 0 28 0 10 26 c6 14 13 43 16 65 l7 39
-45 0 -46 0 -12 15 c-7 8 -17 15 -22 15 l-10 0 6 -24z" />
  </g>
  <g transform="translate(0.000000,338.000000) scale(0.100000,-0.100000)" fill="#e8a732" stroke="none">
    <path d="M1399 2203 c-32 -27 -59 -77 -59 -109 0 -10 2 -15 5 -12 3 3 19 -7
36 -23 32 -30 55 -36 106 -30 l33 3 30 31 c31 32 48 86 34 109 l-8 13 20 -15
19 -15 -20 24 c-29 34 -68 51 -119 51 l-44 0 -33 -27z m133 -77 c13 -19 9 -49
-9 -68 l-16 -18 -28 0 -29 0 -16 25 -17 26 12 25 c6 13 21 28 33 33 l23 9 20
-11 c11 -5 23 -15 27 -21z" />
  </g>
  <g transform="translate(0.000000,338.000000) scale(0.100000,-0.100000)" fill="#d27475" stroke="none">
    <path d="M1933 2673 c4 -3 10 -3 14 0 3 4 0 7 -7 7 -7 0 -10 -3 -7 -7z" />
    <path d="M1894 2658 l-7 -11 11 7 c12 7 16 16 8 16 -3 0 -8 -5 -12 -12z" />
    <path d="M2085 2620 c3 -5 8 -10 11 -10 3 0 2 5 -1 10 -3 6 -8 10 -11 10 -3 0
-2 -4 1 -10z" />
    <path d="M1968 2603 c7 -3 16 -2 19 1 4 3 -2 6 -13 5 l-19 -1 13 -5z" />
    <path d="M2000 2596 c0 -2 8 -10 18 -17 l17 -14 -14 18 c-13 16 -21 21 -21 13z" />
    <path d="M2100 2590 c0 -7 3 -10 7 -7 3 4 3 10 0 14 -4 3 -7 0 -7 -7z" />
    <path d="M1911 2544 l1 -19 5 13 c3 7 2 16 -1 19 -3 4 -6 -2 -5 -13z" />
    <path d="M1254 2538 l-7 -11 11 7 c12 7 16 16 8 16 -3 0 -8 -5 -12 -12z" />
    <path d="M1934 2503 l19 -23 26 1 26 2 -25 4 c-14 3 -34 12 -45 21 l-20 17 19
-22z" />
    <path d="M2101 2504 l1 -19 5 13 c3 7 2 16 -1 19 -3 4 -6 -2 -5 -13z" />
    <path d="M528 2473 c7 -3 16 -2 19 1 4 3 -2 6 -13 5 l-19 -1 13 -5z" />
    <path d="M1364 2468 l-7 -11 11 7 c12 7 16 16 8 16 -3 0 -8 -5 -12 -12z" />
    <path d="M2084 2468 l-7 -11 11 7 c12 7 16 16 8 16 -3 0 -8 -5 -12 -12z" />
    <path d="M494 2458 l-7 -11 11 7 c12 7 16 16 8 16 -3 0 -8 -5 -12 -12z" />
    <path d="M1204 2458 l-7 -11 11 7 c12 7 16 16 8 16 -3 0 -8 -5 -12 -12z" />
    <path d="M464 2438 l-7 -11 11 7 c12 7 16 16 8 16 -3 0 -8 -5 -12 -12z" />
    <path d="M2044 2428 l-7 -11 11 7 c12 7 16 16 8 16 -3 0 -8 -5 -12 -12z" />
    <path d="M445 2409 c-4 -6 -5 -12 -2 -15 2 -3 7 2 10 11 7 17 1 20 -8 4z" />
    <path d="M519 2383 l-14 -18 18 14 c9 7 17 15 17 17 0 8 -8 3 -21 -13z" />
    <path d="M590 2396 c0 -2 8 -10 18 -17 l17 -14 -14 18 c-13 16 -21 21 -21 13z" />
    <path d="M431 2364 l1 -19 5 13 c3 7 2 16 -1 19 -3 4 -6 -2 -5 -13z" />
    <path d="M622 2340 c0 -14 2 -19 5 -12 2 6 2 18 0 25 -3 6 -5 1 -5 -13z" />
    <path d="M431 2314 l1 -19 5 13 c3 7 2 16 -1 19 -3 4 -6 -2 -5 -13z" />
    <path d="M520 2306 c0 -2 8 -10 18 -17 l17 -14 -14 18 c-13 16 -21 21 -21 13z" />
    <path d="M669 2253 l-24 -28 30 25 c17 14 32 26 34 28 2 1 0 2 -6 2 -5 0 -20
-12 -34 -27z" />
    <path d="M485 2230 c3 -5 8 -10 11 -10 3 0 2 5 -1 10 -3 6 -8 10 -11 10 -3 0
-2 -4 1 -10z" />
    <path d="M513 2213 c4 -3 10 -3 14 0 3 4 0 7 -7 7 -7 0 -10 -3 -7 -7z" />
    <path d="M603 2213 c4 -3 10 -3 14 0 3 4 0 7 -7 7 -7 0 -10 -3 -7 -7z" />
    <path d="M553 2203 c9 -2 23 -2 30 0 6 3 -1 5 -18 5 l-30 0 18 -5z" />
    <path d="M2354 2188 l-19 -23 23 19 c21 18 27 26 19 26 -2 0 -12 -10 -23 -22z" />
    <path d="M2551 2197 c2 -1 13 -9 24 -17 l20 -15 -14 18 c-7 9 -18 17 -24 17
-6 0 -8 -1 -6 -3z" />
    <path d="M2313 2163 c4 -3 10 -3 14 0 3 4 0 7 -7 7 -7 0 -10 -3 -7 -7z" />
    <path d="M2495 2140 c3 -5 8 -10 11 -10 3 0 2 5 -1 10 -3 6 -8 10 -11 10 -3 0
-2 -4 1 -10z" />
    <path d="M2601 2114 l1 -19 5 13 c3 7 2 16 -1 19 -3 4 -6 -2 -5 -13z" />
    <path d="M2600 2070 c0 -7 3 -10 7 -7 3 4 3 10 0 14 -4 3 -7 0 -7 -7z" />
    <path d="M363 2043 c9 -2 23 -2 30 0 6 3 -1 5 -18 5 l-30 0 18 -5z" />
    <path d="M420 2037 c0 -3 12 -12 26 -22 15 -9 23 -12 20 -6 -7 11 -46 35 -46
28z" />
    <path d="M274 2008 l-19 -23 23 19 c21 18 27 26 19 26 -2 0 -12 -10 -23 -22z" />
    <path d="M2345 2010 c10 -11 20 -20 23 -20 3 0 -3 9 -13 20 -10 11 -20 20 -23
20 -3 0 3 -9 13 -20z" />
    <path d="M2560 2000 l-15 -10 12 0 c6 0 15 5 18 10 8 12 4 12 -15 0z" />
    <path d="M244 1968 l-7 -11 11 7 c12 7 16 16 8 16 -3 0 -8 -5 -12 -12z" />
    <path d="M358 1963 c6 -2 18 -2 25 0 6 3 1 5 -13 5 -14 0 -19 -2 -12 -5z" />
    <path d="M1055 1960 c3 -5 8 -10 11 -10 3 0 2 5 -1 10 -3 6 -8 10 -11 10 -3 0
-2 -4 1 -10z" />
    <path d="M324 1948 l-7 -11 11 7 c12 7 16 16 8 16 -3 0 -8 -5 -12 -12z" />
    <path d="M400 1956 c0 -2 8 -10 18 -17 l17 -14 -14 18 c-13 16 -21 21 -21 13z" />
    <path d="M230 1930 c0 -7 3 -10 7 -7 3 4 3 10 0 14 -4 3 -7 0 -7 -7z" />
    <path d="M231 1884 l1 -19 5 13 c3 7 2 16 -1 19 -3 4 -6 -2 -5 -13z" />
    <path d="M420 1880 c0 -7 3 -10 7 -7 3 4 3 10 0 14 -4 3 -7 0 -7 -7z" />
    <path d="M1135 1830 c3 -5 8 -10 11 -10 3 0 2 5 -1 10 -3 6 -8 10 -11 10 -3 0
-2 -4 1 -10z" />
    <path d="M1733 1833 c4 -3 10 -3 14 0 3 4 0 7 -7 7 -7 0 -10 -3 -7 -7z" />
    <path d="M1813 1833 c4 -3 10 -3 14 0 3 4 0 7 -7 7 -7 0 -10 -3 -7 -7z" />
    <path d="M1684 1808 l-7 -11 11 7 c12 7 16 16 8 16 -3 0 -8 -5 -12 -12z" />
    <path d="M295 1790 c3 -5 8 -10 11 -10 3 0 2 5 -1 10 -3 6 -8 10 -11 10 -3 0
-2 -4 1 -10z" />
    <path d="M434 1788 l-7 -11 11 7 c12 7 16 16 8 16 -3 0 -8 -5 -12 -12z" />
    <path d="M1654 1778 l-7 -11 11 7 c12 7 16 16 8 16 -3 0 -8 -5 -12 -12z" />
    <path d="M333 1773 c4 -3 10 -3 14 0 3 4 0 7 -7 7 -7 0 -10 -3 -7 -7z" />
    <path d="M403 1773 c4 -3 10 -3 14 0 3 4 0 7 -7 7 -7 0 -10 -3 -7 -7z" />
    <path d="M1773 1763 c4 -3 10 -3 14 0 3 4 0 7 -7 7 -7 0 -10 -3 -7 -7z" />
    <path d="M1900 1750 c0 -7 3 -10 7 -7 3 4 3 10 0 14 -4 3 -7 0 -7 -7z" />
    <path d="M1724 1738 l-7 -11 11 7 c12 7 16 16 8 16 -3 0 -8 -5 -12 -12z" />
    <path d="M1075 1680 c3 -5 8 -10 11 -10 3 0 2 5 -1 10 -3 6 -8 10 -11 10 -3 0
-2 -4 1 -10z" />
    <path d="M1900 1660 c0 -7 3 -10 7 -7 3 4 3 10 0 14 -4 3 -7 0 -7 -7z" />
    <path d="M1095 1650 c3 -5 8 -10 11 -10 3 0 2 5 -1 10 -3 6 -8 10 -11 10 -3 0
-2 -4 1 -10z" />
    <path d="M1749 1647 c5 -5 19 -7 32 -5 l24 4 -33 5 -33 6 10 -10z" />
    <path d="M1670 1615 c13 -14 26 -25 28 -25 3 0 -5 11 -18 25 -13 14 -26 25
-28 25 -3 0 5 -11 18 -25z" />
    <path d="M1869 1603 l-14 -18 18 14 c9 7 17 15 17 17 0 8 -8 3 -21 -13z" />
  </g>
  <g transform="translate(0.000000,338.000000) scale(0.100000,-0.100000)" fill="#e4a192" stroke="none">
    <path d="M1963 2683 c4 -3 10 -3 14 0 3 4 0 7 -7 7 -7 0 -10 -3 -7 -7z" />
    <path d="M2011 2676 c2 -2 15 -9 29 -15 l25 -12 -19 15 c-11 9 -24 16 -30 16
-5 0 -7 -2 -5 -4z" />
    <path d="M1903 2663 c4 -3 10 -3 14 0 3 4 0 7 -7 7 -7 0 -10 -3 -7 -7z" />
    <path d="M1995 2490 l-6 -10 15 6 c18 7 21 14 7 14 -6 0 -13 -4 -16 -10z" />
    <path d="M593 2473 c4 -3 10 -3 14 0 3 4 0 7 -7 7 -7 0 -10 -3 -7 -7z" />
    <path d="M1973 2403 c4 -3 10 -3 14 0 3 4 0 7 -7 7 -7 0 -10 -3 -7 -7z" />
    <path d="M620 2340 c0 -7 3 -10 7 -7 3 4 3 10 0 14 -4 3 -7 0 -7 -7z" />
    <path d="M440 2281 c0 -6 4 -13 10 -16 l10 -6 -6 15 c-7 18 -14 21 -14 7z" />
    <path d="M543 2283 c4 -3 10 -3 14 0 3 4 0 7 -7 7 -7 0 -10 -3 -7 -7z" />
    <path d="M743 2273 c26 -2 68 -2 95 0 26 2 4 3 -48 3 -52 0 -74 -1 -47 -3z" />
    <path d="M2453 2233 c4 -3 10 -3 14 0 3 4 0 7 -7 7 -7 0 -10 -3 -7 -7z" />
    <path d="M2395 2220 l-6 -10 15 6 c18 7 21 14 7 14 -6 0 -13 -4 -16 -10z" />
    <path d="M2410 2135 c-7 -9 -11 -17 -9 -20 3 -2 10 5 17 15 14 24 10 26 -8 5z" />
    <path d="M1342 2100 c0 -14 2 -19 5 -12 2 6 2 18 0 25 -3 6 -5 1 -5 -13z" />
    <path d="M2400 2080 c0 -7 3 -10 7 -7 3 4 3 10 0 14 -4 3 -7 0 -7 -7z" />
    <path d="M300 2030 c-8 -5 -10 -10 -5 -10 6 0 17 5 25 10 8 5 11 10 5 10 -5 0
-17 -5 -25 -10z" />
    <path d="M433 2023 c4 -3 10 -3 14 0 3 4 0 7 -7 7 -7 0 -10 -3 -7 -7z" />
    <path d="M1579 2003 l-24 -28 28 24 c25 23 32 31 24 31 -2 0 -14 -12 -28 -27z" />
    <path d="M2448 1953 c7 -3 16 -2 19 1 4 3 -2 6 -13 5 l-19 -1 13 -5z" />
    <path d="M420 1930 c0 -7 3 -10 7 -7 3 4 3 10 0 14 -4 3 -7 0 -7 -7z" />
    <path d="M240 1851 c0 -6 4 -13 10 -16 l10 -6 -6 15 c-7 18 -14 21 -14 7z" />
    <path d="M345 1850 c3 -5 8 -10 11 -10 3 0 2 5 -1 10 -3 6 -8 10 -11 10 -3 0
-2 -4 1 -10z" />
    <path d="M385 1850 l-6 -10 15 6 c18 7 21 14 7 14 -6 0 -13 -4 -16 -10z" />
    <path d="M464 1808 l-7 -11 11 7 c12 7 16 16 8 16 -3 0 -8 -5 -12 -12z" />
    <path d="M995 1810 c3 -5 8 -10 11 -10 3 0 2 5 -1 10 -3 6 -8 10 -11 10 -3 0
-2 -4 1 -10z" />
    <path d="M1045 1730 c3 -5 8 -10 11 -10 3 0 2 5 -1 10 -3 6 -8 10 -11 10 -3 0
-2 -4 1 -10z" />
    <path d="M1830 1720 c0 -7 3 -10 7 -7 3 4 3 10 0 14 -4 3 -7 0 -7 -7z" />
    <path d="M1912 1710 c0 -14 2 -19 5 -12 2 6 2 18 0 25 -3 6 -5 1 -5 -13z" />
    <path d="M1830 1690 c0 -7 3 -10 7 -7 3 4 3 10 0 14 -4 3 -7 0 -7 -7z" />
    <path d="M1778 1563 c7 -3 16 -2 19 1 4 3 -2 6 -13 5 l-19 -1 13 -5z" />
  </g>
  <g transform="translate(0.000000,338.000000) scale(0.100000,-0.100000)" fill="#c54c50" stroke="none">
    <path d="M2003 2673 c4 -3 10 -3 14 0 3 4 0 7 -7 7 -7 0 -10 -3 -7 -7z" />
    <path d="M2100 2580 c0 -7 3 -10 7 -7 3 4 3 10 0 14 -4 3 -7 0 -7 -7z" />
    <path d="M2031 2544 l1 -19 5 13 c3 7 2 16 -1 19 -3 4 -6 -2 -5 -13z" />
    <path d="M1885 2440 c3 -5 8 -10 11 -10 3 0 2 5 -1 10 -3 6 -8 10 -11 10 -3 0
-2 -4 1 -10z" />
    <path d="M604 2298 l-7 -11 11 7 c12 7 16 16 8 16 -3 0 -8 -5 -12 -12z" />
    <path d="M2453 2153 c4 -3 10 -3 14 0 3 4 0 7 -7 7 -7 0 -10 -3 -7 -7z" />
    <path d="M2602 2090 c0 -14 2 -19 5 -12 2 6 2 18 0 25 -3 6 -5 1 -5 -13z" />
    <path d="M2415 2050 c3 -5 8 -10 11 -10 3 0 2 5 -1 10 -3 6 -8 10 -11 10 -3 0
-2 -4 1 -10z" />
    <path d="M363 2043 c4 -3 10 -3 14 0 3 4 0 7 -7 7 -7 0 -10 -3 -7 -7z" />
    <path d="M2453 2033 c4 -3 10 -3 14 0 3 4 0 7 -7 7 -7 0 -10 -3 -7 -7z" />
    <path d="M475 1990 c10 -11 20 -20 23 -20 3 0 -3 9 -13 20 -10 11 -20 20 -23
20 -3 0 3 -9 13 -20z" />
    <path d="M232 1910 c0 -14 2 -19 5 -12 2 6 2 18 0 25 -3 6 -5 1 -5 -13z" />
    <path d="M409 1863 l-14 -18 18 14 c9 7 17 15 17 17 0 8 -8 3 -21 -13z" />
    <path d="M358 1843 c6 -2 18 -2 25 0 6 3 1 5 -13 5 -14 0 -19 -2 -12 -5z" />
    <path d="M1814 1658 l-7 -11 11 7 c12 7 16 16 8 16 -3 0 -8 -5 -12 -12z" />
    <path d="M1675 1610 c3 -5 8 -10 11 -10 3 0 2 5 -1 10 -3 6 -8 10 -11 10 -3 0
-2 -4 1 -10z" />
  </g>
  <g transform="translate(0.000000,338.000000) scale(0.100000,-0.100000)" fill="#469fc7" stroke="none">
    <path d="M1018 2873 c6 -2 18 -2 25 0 6 3 1 5 -13 5 -14 0 -19 -2 -12 -5z" />
    <path d="M884 2856 c-3 -8 -4 -27 -1 -43 l4 -28 2 37 1 37 38 4 37 4 -38 1
-38 2 -5 -14z" />
    <path d="M1063 2723 c4 -3 10 -3 14 0 3 4 0 7 -7 7 -7 0 -10 -3 -7 -7z" />
    <path d="M1042 2665 l0 -30 5 18 c2 9 2 23 0 30 -3 6 -5 -1 -5 -18z" />
    <path d="M892 2660 c0 -14 2 -19 5 -12 2 6 2 18 0 25 -3 6 -5 1 -5 -13z" />
    <path d="M1051 2564 l1 -19 5 13 c3 7 2 16 -1 19 -3 4 -6 -2 -5 -13z" />
    <path d="M901 2534 l1 -19 5 13 c3 7 2 16 -1 19 -3 4 -6 -2 -5 -13z" />
    <path d="M1260 1566 c0 -8 4 -17 8 -20 4 -2 8 4 8 15 0 10 -4 19 -8 19 -4 0
-8 -6 -8 -14z" />
    <path d="M1445 1570 c3 -5 8 -10 11 -10 3 0 2 5 -1 10 -3 6 -8 10 -11 10 -3 0
-2 -4 1 -10z" />
    <path d="M1505 1510 c21 -22 41 -40 44 -40 3 0 -13 18 -34 40 -21 22 -41 40
-44 40 -3 0 13 -18 34 -40z" />
    <path d="M1290 1516 c0 -2 8 -10 18 -17 l17 -14 -14 18 c-13 16 -21 21 -21 13z" />
    <path d="M2614 1468 l-7 -11 11 7 c12 7 16 16 8 16 -3 0 -8 -5 -12 -12z" />
    <path d="M2354 1438 l-7 -11 11 7 c7 4 12 9 12 12 0 8 -9 4 -16 -8z" />
    <path d="M1605 1420 c3 -5 8 -10 11 -10 3 0 2 5 -1 10 -3 6 -8 10 -11 10 -3 0
-2 -4 1 -10z" />
    <path d="M1400 1395 c13 -14 26 -25 28 -25 3 0 -5 11 -18 25 -13 14 -26 25
-28 25 -3 0 5 -11 18 -25z" />
    <path d="M1650 1386 c0 -2 8 -10 18 -17 l17 -14 -14 18 c-13 16 -21 21 -21 13z" />
    <path d="M2484 1348 l-19 -23 23 19 c21 18 27 26 19 26 -2 0 -12 -10 -23 -22z" />
    <path d="M2224 1338 l-7 -11 11 7 c7 4 12 9 12 12 0 8 -9 4 -16 -8z" />
    <path d="M1725 1330 c3 -5 8 -10 11 -10 3 0 2 5 -1 10 -3 6 -8 10 -11 10 -3 0
-2 -4 1 -10z" />
    <path d="M1490 1316 c0 -2 8 -10 18 -17 l17 -14 -14 18 c-13 16 -21 21 -21 13z" />
    <path d="M2164 1298 l-7 -11 11 7 c7 4 12 9 12 12 0 8 -9 4 -16 -8z" />
    <path d="M2414 1288 l-7 -11 11 7 c7 4 12 9 12 12 0 8 -9 4 -16 -8z" />
    <path d="M1540 1276 c0 -2 8 -10 18 -17 l17 -14 -14 18 c-13 16 -21 21 -21 13z" />
    <path d="M1825 1270 c3 -5 8 -10 11 -10 3 0 2 5 -1 10 -3 6 -8 10 -11 10 -3 0
-2 -4 1 -10z" />
    <path d="M2094 1258 l-7 -11 11 7 c12 7 16 16 8 16 -3 0 -8 -5 -12 -12z" />
    <path d="M2369 1253 l-14 -18 18 14 c16 13 21 21 13 21 -2 0 -10 -8 -17 -17z" />
    <path d="M1963 1203 c4 -3 10 -3 14 0 3 4 0 7 -7 7 -7 0 -10 -3 -7 -7z" />
    <path d="M2294 1198 l-7 -11 11 7 c12 7 16 16 8 16 -3 0 -8 -5 -12 -12z" />
    <path d="M2264 1178 l-7 -11 11 7 c12 7 16 16 8 16 -3 0 -8 -5 -12 -12z" />
    <path d="M2214 1148 l-7 -11 11 7 c12 7 16 16 8 16 -3 0 -8 -5 -12 -12z" />
    <path d="M1958 1043 c6 -2 18 -2 25 0 6 3 1 5 -13 5 -14 0 -19 -2 -12 -5z" />
  </g>
  <g transform="translate(0.000000,338.000000) scale(0.100000,-0.100000)" fill="#218bbb" stroke="none">
    <path d="M1043 2873 c4 -3 10 -3 14 0 3 4 0 7 -7 7 -7 0 -10 -3 -7 -7z" />
    <path d="M1041 2634 l1 -19 5 13 c3 7 2 16 -1 19 -3 4 -6 -2 -5 -13z" />
    <path d="M1266 1572 c-3 -5 8 -6 25 -4 16 2 29 6 29 8 0 8 -49 4 -54 -4z" />
    <path d="M1450 1566 c0 -2 8 -10 18 -17 l17 -14 -14 18 c-13 16 -21 21 -21 13z" />
    <path d="M1555 1460 c10 -11 20 -20 23 -20 3 0 -3 9 -13 20 -10 11 -20 20 -23
20 -3 0 3 -9 13 -20z" />
    <path d="M1615 1410 c3 -5 8 -10 11 -10 3 0 2 5 -1 10 -3 6 -8 10 -11 10 -3 0
-2 -4 1 -10z" />
    <path d="M2509 1373 l-14 -18 18 14 c9 7 17 15 17 17 0 8 -8 3 -21 -13z" />
    <path d="M2424 1298 l-7 -11 11 7 c12 7 16 16 8 16 -3 0 -8 -5 -12 -12z" />
    <path d="M1963 1043 c4 -3 10 -3 14 0 3 4 0 7 -7 7 -7 0 -10 -3 -7 -7z" />
  </g>
</svg>